<svg xmlns="http://www.w3.org/2000/svg" width="28.97" height="26" viewBox="0 0 28.97 26">
  <defs>
    <style>
      .cls-1 {
        fill: #333;
        fill-rule: evenodd;
      }
    </style>
  </defs>
  <path id="cart" class="cls-1" d="M1692.51,54.81a2.243,2.243,0,0,0-1.42-.473h-19.28c-0.7-3.318-1.15-4.337-3.31-4.337H1664l0.94,2.049,3.58,0.015a1.21,1.21,0,0,1,1.04,1.229l2.94,14.484a2.777,2.777,0,0,0,2.95,2.209h12.86c1.73,0,1.84-1.936,1.84-1.936h-13.79a2.016,2.016,0,0,1-2.08-1.978l-0.65-3.1,17.27-.025a1.559,1.559,0,0,0,1.49-1.4l0.59-5.437A1.3,1.3,0,0,0,1692.51,54.81Zm-2.03,5.949h-17.32l-0.83-3.955h18.57Zm-2.74,13.016A2.19,2.19,0,1,0,1685.55,76,2.206,2.206,0,0,0,1687.74,73.775Zm-8.77,0A2.19,2.19,0,1,0,1676.78,76,2.19,2.19,0,0,0,1678.97,73.775Z" transform="translate(-1664 -50)"/>
</svg>
